<svg xmlns="http://www.w3.org/2000/svg" viewBox="0 0 255 72" role="img" aria-labelledby="title">
  <title id="title">DuckRobe</title>
  <g transform="translate(0 4)" fill="none" stroke="#29362d" stroke-width="3.4" stroke-linecap="round" stroke-linejoin="round">
    <path d="M7 30c0-11 9-18 21-18h10c11 0 18 7 19 18l1 9c1 8-4 13-13 13H20C12 52 7 47 7 39Z"/>
    <path d="M8 38h19c4 0 7 2 8 5"/>
    <circle cx="44" cy="30" r="9"/>
    <circle cx="44" cy="30" r="3.7" fill="#29362d" stroke="none"/>
  </g>
  <!-- Lato Regular outlines: scripts/assets/Lato-Regular.ttf; 42px, x=78, baseline=50, tracking=-0.65px, native GPOS kerning. -->
  <path fill="#29362d" d="M94.821 33.788Q93.771 32.381 92.553 31.825Q91.335 31.268 89.823 31.268Q86.862 31.268 85.266 33.389Q83.67 35.51 83.67 39.437Q83.67 41.516 84.027 42.996Q84.384 44.477 85.077 45.432Q85.77 46.388 86.778 46.829Q87.786 47.27 89.067 47.27Q90.915 47.27 92.291 46.43Q93.666 45.59 94.821 44.057ZM98.559 19.067V50H96.333Q95.535 50 95.325 49.223L94.989 46.64Q93.624 48.278 91.881 49.286Q90.138 50.294 87.849 50.294Q86.022 50.294 84.531 49.59Q83.04 48.887 81.99 47.522Q80.94 46.157 80.373 44.12Q79.806 42.083 79.806 39.437Q79.806 37.085 80.436 35.058Q81.066 33.032 82.242 31.541Q83.418 30.05 85.13 29.2Q86.841 28.349 88.983 28.349Q90.936 28.349 92.333 29.011Q93.729 29.672 94.821 30.848V19.067ZM121.324 28.727V50H119.098Q118.3 50 118.09 49.223L117.796 46.934Q116.41 48.467 114.688 49.401Q112.966 50.336 110.74 50.336Q108.997 50.336 107.663 49.758Q106.33 49.181 105.427 48.131Q104.524 47.081 104.073 45.59Q103.621 44.099 103.621 42.293V28.727H107.359V42.293Q107.359 44.708 108.462 46.031Q109.564 47.354 111.832 47.354Q113.491 47.354 114.93 46.566Q116.368 45.779 117.586 44.393V28.727ZM141.401 32.507Q141.233 32.738 141.065 32.864Q140.897 32.99 140.603 32.99Q140.288 32.99 139.91 32.727Q139.532 32.465 138.976 32.15Q138.419 31.835 137.611 31.572Q136.802 31.31 135.626 31.31Q134.051 31.31 132.854 31.867Q131.657 32.423 130.849 33.473Q130.04 34.523 129.63 36.014Q129.221 37.505 129.221 39.353Q129.221 41.285 129.662 42.786Q130.103 44.288 130.911 45.306Q131.72 46.325 132.865 46.861Q134.009 47.396 135.437 47.396Q136.802 47.396 137.684 47.07Q138.566 46.745 139.144 46.346Q139.721 45.947 140.109 45.621Q140.498 45.296 140.876 45.296Q141.338 45.296 141.59 45.653L142.64 47.018Q141.947 47.879 141.065 48.488Q140.183 49.097 139.165 49.507Q138.146 49.916 137.033 50.105Q135.92 50.294 134.765 50.294Q132.77 50.294 131.059 49.559Q129.347 48.824 128.087 47.427Q126.827 46.031 126.113 43.994Q125.399 41.957 125.399 39.353Q125.399 36.98 126.061 34.964Q126.722 32.948 127.993 31.489Q129.263 30.029 131.122 29.21Q132.98 28.391 135.395 28.391Q137.642 28.391 139.353 29.115Q141.065 29.84 142.388 31.163ZM149.76 19.067V37.274H150.726Q151.146 37.274 151.429 37.159Q151.713 37.043 152.028 36.686L158.748 29.483Q159.042 29.126 159.368 28.926Q159.693 28.727 160.239 28.727H163.62L155.787 37.064Q155.22 37.778 154.569 38.177Q154.947 38.429 155.251 38.755Q155.556 39.08 155.829 39.5L164.145 50H160.806Q160.323 50 159.976 49.843Q159.63 49.685 159.378 49.265L152.385 40.55Q152.07 40.109 151.765 39.972Q151.461 39.836 150.831 39.836H149.76V50H146.001V19.067ZM170.236 32.99Q171.244 30.806 172.714 29.578Q174.184 28.349 176.305 28.349Q176.977 28.349 177.596 28.496Q178.216 28.643 178.699 28.958L178.426 31.751Q178.3 32.276 177.796 32.276Q177.502 32.276 176.935 32.15Q176.368 32.024 175.654 32.024Q174.646 32.024 173.858 32.318Q173.071 32.612 172.452 33.189Q171.832 33.767 171.339 34.617Q170.845 35.468 170.446 36.56V50H166.687V28.727H168.829Q169.438 28.727 169.669 28.958Q169.9 29.189 169.984 29.756ZM189.431 28.391Q191.762 28.391 193.631 29.168Q195.5 29.945 196.823 31.373Q198.146 32.801 198.85 34.828Q199.553 36.854 199.553 39.353Q199.553 41.873 198.85 43.889Q198.146 45.905 196.823 47.333Q195.5 48.761 193.631 49.528Q191.762 50.294 189.431 50.294Q187.079 50.294 185.2 49.528Q183.32 48.761 181.997 47.333Q180.674 45.905 179.971 43.889Q179.267 41.873 179.267 39.353Q179.267 36.854 179.971 34.828Q180.674 32.801 181.997 31.373Q183.32 29.945 185.2 29.168Q187.079 28.391 189.431 28.391ZM189.431 47.375Q192.581 47.375 194.135 45.264Q195.689 43.154 195.689 39.374Q195.689 35.573 194.135 33.452Q192.581 31.331 189.431 31.331Q187.835 31.331 186.649 31.877Q185.462 32.423 184.675 33.452Q183.887 34.481 183.499 35.983Q183.11 37.484 183.11 39.374Q183.11 43.154 184.675 45.264Q186.239 47.375 189.431 47.375ZM207.387 44.876Q208.416 46.262 209.644 46.829Q210.873 47.396 212.343 47.396Q215.346 47.396 216.942 45.275Q218.538 43.154 218.538 38.954Q218.538 35.048 217.12 33.21Q215.703 31.373 213.078 31.373Q211.251 31.373 209.897 32.213Q208.542 33.053 207.387 34.586ZM207.387 31.793Q208.731 30.239 210.421 29.315Q212.112 28.391 214.317 28.391Q216.186 28.391 217.688 29.105Q219.189 29.819 220.239 31.173Q221.289 32.528 221.846 34.46Q222.402 36.392 222.402 38.807Q222.402 41.39 221.772 43.511Q221.142 45.632 219.956 47.133Q218.769 48.635 217.068 49.465Q215.367 50.294 213.246 50.294Q211.146 50.294 209.708 49.507Q208.269 48.719 207.198 47.27L207.009 49.202Q206.841 50 206.043 50H203.628V19.067H207.387ZM240.736 37.043Q240.736 35.741 240.369 34.66Q240.001 33.578 239.298 32.791Q238.594 32.003 237.586 31.572Q236.578 31.142 235.297 31.142Q232.609 31.142 231.045 32.706Q229.48 34.271 229.102 37.043ZM243.76 47.018Q243.067 47.858 242.101 48.477Q241.135 49.097 240.033 49.496Q238.93 49.895 237.754 50.094Q236.578 50.294 235.423 50.294Q233.218 50.294 231.36 49.548Q229.501 48.803 228.147 47.364Q226.792 45.926 226.036 43.805Q225.28 41.684 225.28 38.933Q225.28 36.707 225.963 34.775Q226.645 32.843 227.926 31.425Q229.207 30.008 231.055 29.2Q232.903 28.391 235.213 28.391Q237.124 28.391 238.752 29.031Q240.379 29.672 241.566 30.88Q242.752 32.087 243.424 33.861Q244.096 35.636 244.096 37.904Q244.096 38.786 243.907 39.08Q243.718 39.374 243.193 39.374H228.976Q229.039 41.39 229.533 42.881Q230.026 44.372 230.908 45.37Q231.79 46.367 233.008 46.861Q234.226 47.354 235.738 47.354Q237.145 47.354 238.163 47.029Q239.182 46.703 239.917 46.325Q240.652 45.947 241.146 45.621Q241.639 45.296 241.996 45.296Q242.458 45.296 242.71 45.653Z"/>
</svg>
